<svg width="444" height="222" viewBox="0 0 444 222" fill="none" xmlns="http://www.w3.org/2000/svg">
<path fill-rule="evenodd" clip-rule="evenodd" d="M89.0471 107C90.6839 103.511 92.4278 100.076 94.2759 96.6995C101.602 83.3144 110.565 70.8479 120.987 59.5982C138.255 40.9576 159.159 26.0529 182.409 15.8033C205.66 5.5538 230.764 0.176887 256.173 0.00429136C281.582 -0.168304 306.757 4.86708 330.145 14.7998C353.533 24.7325 374.637 39.352 392.157 57.7562C409.676 76.1604 423.239 97.9591 432.008 121.807C440.778 145.656 444.568 171.048 443.145 196.418C442.7 204.349 441.748 212.225 440.303 220H409.686C411.538 211.71 412.714 203.261 413.192 194.738C414.385 173.46 411.207 152.163 403.852 132.161C396.497 112.159 385.121 93.8765 370.428 78.4407C355.734 63.0049 338.033 50.7434 318.418 42.4127C298.802 34.0821 277.688 29.8588 256.377 30.0036C235.066 30.1484 214.011 34.658 194.51 43.2544C175.01 51.8508 157.477 64.3516 142.995 79.9856C135.374 88.2125 128.682 97.2152 123.02 106.828L123.508 107H89.0471Z" fill="#3563E9"/>
<path fill-rule="evenodd" clip-rule="evenodd" d="M363.529 114C352.481 105.093 340.196 97.7935 327.035 92.3419C308.957 84.854 289.582 81 270.015 81C250.448 81 231.072 84.854 212.995 92.342C199.834 97.7935 187.548 105.093 176.5 114H363.529Z" fill="#3563E9"/>
<path fill-rule="evenodd" clip-rule="evenodd" d="M389 158.707C389 164.346 388.672 169.912 388.033 175.387C387.014 176.299 385.966 177.179 384.891 178.027C385.524 175.449 385.859 172.762 385.859 170C385.859 150.67 369.453 135 349.215 135C328.977 135 312.57 150.67 312.57 170C312.57 178.438 315.697 186.178 320.903 192.222H265.722C269.525 186.705 271.738 180.099 271.738 173C271.738 153.67 255.332 138 235.094 138C214.856 138 198.45 153.67 198.45 173C198.45 180.099 200.663 186.705 204.466 192.222H80.9622C80.3961 189.87 79.8883 187.496 79.4403 185.103H93.6897C90.3844 181.322 88.3634 176.259 88.3634 170.695C88.3634 170.124 88.3847 169.559 88.4264 169H77.3664C77.1235 165.599 77 162.167 77 158.707C77 147.471 78.3022 136.525 80.7703 126H385.23C387.698 136.525 389 147.471 389 158.707ZM365.859 170C365.859 177.429 359.282 185 349.215 185C339.147 185 332.57 177.429 332.57 170C332.57 162.571 339.147 155 349.215 155C359.282 155 365.859 162.571 365.859 170ZM235.094 188C245.162 188 251.738 180.429 251.738 173C251.738 165.571 245.162 158 235.094 158C225.026 158 218.45 165.571 218.45 173C218.45 180.429 225.026 188 235.094 188ZM145.054 149H124.114V159H145.054V149ZM115.738 182.103C120.126 178.531 122.939 173.025 122.939 166.848C122.939 166.564 122.933 166.281 122.921 166H146.072C146.031 166.559 146.009 167.124 146.009 167.695C146.009 173.259 148.03 178.322 151.336 182.103H115.738Z" fill="#3563E9"/>
<ellipse cx="103.5" cy="156" rx="12.5" ry="15" fill="#F18F01"/>
<ellipse cx="163.5" cy="156" rx="12.5" ry="15" fill="#F18F01"/>
<line x1="188.039" y1="185.039" x2="15.0387" y2="185.994" stroke="#3563E9" stroke-width="14" stroke-linecap="round"/>
<path d="M26.9995 214.375H315" stroke="#3563E9" stroke-width="14" stroke-linecap="round"/>
<path d="M39 149H63" stroke="#3563E9" stroke-width="14" stroke-linecap="round"/>
<path d="M7 149L14 149" stroke="#3563E9" stroke-width="14" stroke-linecap="round"/>
<path fill-rule="evenodd" clip-rule="evenodd" d="M108.032 103.785L94.8981 96.0095C89.08 105.837 84.182 116.181 80.2663 126.909L105.971 136.291L108.032 103.785Z" fill="#3563E9"/>
<path fill-rule="evenodd" clip-rule="evenodd" d="M350.054 114L348 129.953L368.602 128.234C367.341 123.433 365.636 118.677 363.5 114H350.054Z" fill="#3563E9"/>
</svg>
