<svg width="539" height="640" viewBox="0 0 539 640" fill="none" xmlns="http://www.w3.org/2000/svg">
<path fill-rule="evenodd" clip-rule="evenodd" d="M142.047 107C143.684 103.511 145.428 100.076 147.276 96.6995C154.602 83.3144 163.565 70.8479 173.987 59.5982C191.255 40.9576 212.159 26.0529 235.409 15.8033C258.66 5.5538 283.764 0.176887 309.173 0.00429136C334.582 -0.168304 359.757 4.86708 383.145 14.7998C406.533 24.7325 427.637 39.352 445.157 57.7562C462.676 76.1604 476.239 97.9591 485.008 121.807C493.778 145.656 497.568 171.048 496.145 196.418C495.7 204.349 494.748 212.225 493.303 220H462.686C464.538 211.71 465.714 203.261 466.192 194.738C467.385 173.46 464.207 152.163 456.852 132.161C449.497 112.159 438.121 93.8765 423.428 78.4407C408.734 63.0049 391.033 50.7434 371.418 42.4127C351.802 34.0821 330.688 29.8588 309.377 30.0036C288.066 30.1484 267.011 34.658 247.51 43.2544C228.01 51.8508 210.477 64.3516 195.995 79.9856C188.374 88.2125 181.682 97.2152 176.02 106.828L176.508 107H142.047Z" fill="#3563E9"/>
<path fill-rule="evenodd" clip-rule="evenodd" d="M416.529 114C405.481 105.093 393.196 97.7935 380.035 92.3419C361.957 84.854 342.582 81 323.015 81C303.448 81 284.072 84.854 265.995 92.342C252.834 97.7935 240.548 105.093 229.5 114H416.529Z" fill="#3563E9"/>
<path fill-rule="evenodd" clip-rule="evenodd" d="M442 158.707C442 164.346 441.672 169.912 441.033 175.387C440.014 176.299 438.966 177.179 437.891 178.027C438.524 175.449 438.859 172.762 438.859 170C438.859 150.67 422.453 135 402.215 135C381.977 135 365.57 150.67 365.57 170C365.57 178.438 368.697 186.178 373.903 192.222H318.722C322.525 186.705 324.738 180.099 324.738 173C324.738 153.67 308.332 138 288.094 138C267.856 138 251.45 153.67 251.45 173C251.45 180.099 253.663 186.705 257.466 192.222H133.962C133.396 189.87 132.888 187.496 132.44 185.103H146.69C143.384 181.322 141.363 176.259 141.363 170.695C141.363 170.124 141.385 169.559 141.426 169H130.366C130.123 165.599 130 162.167 130 158.707C130 147.471 131.302 136.525 133.77 126H438.23C440.698 136.525 442 147.471 442 158.707ZM418.859 170C418.859 177.429 412.282 185 402.215 185C392.147 185 385.57 177.429 385.57 170C385.57 162.571 392.147 155 402.215 155C412.282 155 418.859 162.571 418.859 170ZM288.094 188C298.162 188 304.738 180.429 304.738 173C304.738 165.571 298.162 158 288.094 158C278.026 158 271.45 165.571 271.45 173C271.45 180.429 278.026 188 288.094 188ZM198.054 149H177.114V159H198.054V149ZM168.738 182.103C173.126 178.531 175.939 173.025 175.939 166.848C175.939 166.564 175.933 166.281 175.921 166H199.072C199.031 166.559 199.009 167.124 199.009 167.695C199.009 173.259 201.03 178.322 204.336 182.103H168.738Z" fill="#3563E9"/>
<ellipse cx="156.5" cy="156" rx="12.5" ry="15" fill="#F18F01"/>
<ellipse cx="216.5" cy="156" rx="12.5" ry="15" fill="#F18F01"/>
<line x1="241.039" y1="185.039" x2="68.0387" y2="185.994" stroke="#3563E9" stroke-width="14" stroke-linecap="round"/>
<path d="M79.9995 214.375H368" stroke="#3563E9" stroke-width="14" stroke-linecap="round"/>
<path d="M92 149H116" stroke="#3563E9" stroke-width="14" stroke-linecap="round"/>
<path d="M60 149L67 149" stroke="#3563E9" stroke-width="14" stroke-linecap="round"/>
<path fill-rule="evenodd" clip-rule="evenodd" d="M161.032 103.785L147.898 96.0095C142.08 105.837 137.182 116.181 133.266 126.909L158.971 136.291L161.032 103.785Z" fill="#3563E9"/>
<path fill-rule="evenodd" clip-rule="evenodd" d="M403.054 114L401 129.953L421.602 128.234C420.341 123.433 418.636 118.677 416.5 114H403.054Z" fill="#3563E9"/>
<path fill-rule="evenodd" clip-rule="evenodd" d="M162.047 505C163.684 501.511 165.428 498.076 167.276 494.699C174.602 481.314 183.565 468.848 193.987 457.598C211.255 438.958 232.159 424.053 255.409 413.803C278.66 403.554 303.764 398.177 329.173 398.004C354.582 397.832 379.757 402.867 403.145 412.8C426.533 422.733 447.637 437.352 465.157 455.756C482.676 474.16 496.239 495.959 505.008 519.807C513.778 543.656 517.568 569.048 516.145 594.418C515.7 602.349 514.748 610.225 513.303 618H482.686C484.538 609.71 485.714 601.261 486.192 592.738C487.385 571.46 484.207 550.163 476.852 530.161C469.497 510.159 458.121 491.876 443.428 476.441C428.734 461.005 411.033 448.743 391.418 440.413C371.802 432.082 350.688 427.859 329.377 428.004C308.066 428.148 287.011 432.658 267.51 441.254C248.01 449.851 230.477 462.352 215.995 477.986C208.374 486.212 201.682 495.215 196.02 504.828L196.508 505H162.047Z" fill="#3563E9"/>
<path fill-rule="evenodd" clip-rule="evenodd" d="M436.529 512C425.481 503.093 413.196 495.793 400.035 490.342C381.957 482.854 362.582 479 343.015 479C323.448 479 304.072 482.854 285.995 490.342C272.834 495.793 260.548 503.093 249.5 512H436.529Z" fill="#3563E9"/>
<path fill-rule="evenodd" clip-rule="evenodd" d="M462 556.707C462 562.346 461.672 567.912 461.033 573.387C460.014 574.299 458.966 575.179 457.891 576.027C458.524 573.449 458.859 570.762 458.859 568C458.859 548.67 442.453 533 422.215 533C401.977 533 385.57 548.67 385.57 568C385.57 576.438 388.697 584.178 393.903 590.222H338.722C342.525 584.705 344.738 578.099 344.738 571C344.738 551.67 328.332 536 308.094 536C287.856 536 271.45 551.67 271.45 571C271.45 578.099 273.663 584.705 277.466 590.222H153.962C153.396 587.87 152.888 585.496 152.44 583.103H166.69C163.384 579.322 161.363 574.259 161.363 568.695C161.363 568.124 161.385 567.559 161.426 567H150.366C150.123 563.599 150 560.167 150 556.707C150 545.471 151.302 534.525 153.77 524H458.23C460.698 534.525 462 545.471 462 556.707ZM438.859 568C438.859 575.429 432.282 583 422.215 583C412.147 583 405.57 575.429 405.57 568C405.57 560.571 412.147 553 422.215 553C432.282 553 438.859 560.571 438.859 568ZM308.094 586C318.162 586 324.738 578.429 324.738 571C324.738 563.571 318.162 556 308.094 556C298.026 556 291.45 563.571 291.45 571C291.45 578.429 298.026 586 308.094 586ZM218.054 547H197.114V557H218.054V547ZM188.738 580.103C193.126 576.531 195.939 571.025 195.939 564.848C195.939 564.564 195.933 564.281 195.921 564H219.072C219.031 564.559 219.009 565.124 219.009 565.695C219.009 571.259 221.03 576.322 224.336 580.103H188.738Z" fill="#3563E9"/>
<ellipse cx="176.5" cy="554" rx="12.5" ry="15" fill="#F8F991"/>
<ellipse cx="236.5" cy="554" rx="12.5" ry="15" fill="#F8F991"/>
<line x1="261.039" y1="583.039" x2="88.0387" y2="583.994" stroke="#3563E9" stroke-width="14" stroke-linecap="round"/>
<path d="M99.9995 612.375H388" stroke="#3563E9" stroke-width="14" stroke-linecap="round"/>
<path d="M112 547H136" stroke="#3563E9" stroke-width="14" stroke-linecap="round"/>
<path d="M80 547L87 547" stroke="#3563E9" stroke-width="14" stroke-linecap="round"/>
<path fill-rule="evenodd" clip-rule="evenodd" d="M181.032 501.785L167.898 494.009C162.08 503.837 157.182 514.181 153.266 524.909L178.971 534.291L181.032 501.785Z" fill="#3563E9"/>
<path fill-rule="evenodd" clip-rule="evenodd" d="M423.054 512L421 527.953L441.602 526.234C440.341 521.433 438.636 516.677 436.5 512H423.054Z" fill="#3563E9"/>
</svg>
