<svg width="606" height="385" viewBox="0 0 606 385" fill="none" xmlns="http://www.w3.org/2000/svg">
<path fill-rule="evenodd" clip-rule="evenodd" d="M142.047 107C143.684 103.511 145.428 100.076 147.276 96.6995C154.602 83.3144 163.565 70.8479 173.987 59.5982C191.255 40.9576 212.159 26.0529 235.409 15.8033C258.66 5.5538 283.764 0.176887 309.173 0.00429136C334.582 -0.168304 359.757 4.86708 383.145 14.7998C406.533 24.7325 427.637 39.352 445.157 57.7562C462.676 76.1604 476.239 97.9591 485.008 121.807C493.778 145.656 497.568 171.048 496.145 196.418C495.7 204.349 494.748 212.225 493.303 220H462.686C464.538 211.71 465.714 203.261 466.192 194.738C467.385 173.46 464.207 152.163 456.852 132.161C449.497 112.159 438.121 93.8765 423.428 78.4407C408.734 63.0049 391.033 50.7434 371.418 42.4127C351.802 34.0821 330.688 29.8588 309.377 30.0036C288.066 30.1484 267.011 34.658 247.51 43.2544C228.01 51.8508 210.477 64.3516 195.995 79.9856C188.374 88.2125 181.682 97.2152 176.02 106.828L176.508 107H142.047Z" fill="#3563E9"/>
<path fill-rule="evenodd" clip-rule="evenodd" d="M416.529 114C405.481 105.093 393.196 97.7935 380.035 92.3419C361.957 84.854 342.582 81 323.015 81C303.448 81 284.072 84.854 265.995 92.342C252.834 97.7935 240.548 105.093 229.5 114H416.529Z" fill="#3563E9"/>
<path fill-rule="evenodd" clip-rule="evenodd" d="M442 158.707C442 164.346 441.672 169.912 441.033 175.387C440.014 176.299 438.966 177.179 437.891 178.027C438.524 175.449 438.859 172.762 438.859 170C438.859 150.67 422.453 135 402.215 135C381.977 135 365.57 150.67 365.57 170C365.57 178.438 368.697 186.178 373.903 192.222H318.722C322.525 186.705 324.738 180.099 324.738 173C324.738 153.67 308.332 138 288.094 138C267.856 138 251.45 153.67 251.45 173C251.45 180.099 253.663 186.705 257.466 192.222H133.962C133.396 189.87 132.888 187.496 132.44 185.103H146.69C143.384 181.322 141.363 176.259 141.363 170.695C141.363 170.124 141.385 169.559 141.426 169H130.366C130.123 165.599 130 162.167 130 158.707C130 147.471 131.302 136.525 133.77 126H438.23C440.698 136.525 442 147.471 442 158.707ZM418.859 170C418.859 177.429 412.282 185 402.215 185C392.147 185 385.57 177.429 385.57 170C385.57 162.571 392.147 155 402.215 155C412.282 155 418.859 162.571 418.859 170ZM288.094 188C298.162 188 304.738 180.429 304.738 173C304.738 165.571 298.162 158 288.094 158C278.026 158 271.45 165.571 271.45 173C271.45 180.429 278.026 188 288.094 188ZM198.054 149H177.114V159H198.054V149ZM168.738 182.103C173.126 178.531 175.939 173.025 175.939 166.848C175.939 166.564 175.933 166.281 175.921 166H199.072C199.031 166.559 199.009 167.124 199.009 167.695C199.009 173.259 201.03 178.322 204.336 182.103H168.738Z" fill="#3563E9"/>
<ellipse cx="156.5" cy="156" rx="12.5" ry="15" fill="#F18F01"/>
<ellipse cx="216.5" cy="156" rx="12.5" ry="15" fill="#F18F01"/>
<line x1="241.039" y1="185.039" x2="68.0387" y2="185.994" stroke="#3563E9" stroke-width="14" stroke-linecap="round"/>
<path d="M79.9995 214.375H368" stroke="#3563E9" stroke-width="14" stroke-linecap="round"/>
<path d="M92 149H116" stroke="#3563E9" stroke-width="14" stroke-linecap="round"/>
<path d="M60 149L67 149" stroke="#3563E9" stroke-width="14" stroke-linecap="round"/>
<path fill-rule="evenodd" clip-rule="evenodd" d="M161.032 103.785L147.898 96.0095C142.08 105.837 137.182 116.181 133.266 126.909L158.971 136.291L161.032 103.785Z" fill="#3563E9"/>
<path fill-rule="evenodd" clip-rule="evenodd" d="M403.054 114L401 129.953L421.602 128.234C420.341 123.433 418.636 118.677 416.5 114H403.054Z" fill="#3563E9"/>
<rect y="242" width="606" height="143" rx="40" fill="#3563E9"/>
<path d="M43.925 356V267.91H44.04L91.075 334.61L83.945 333L130.865 267.91H131.095V356H114.42V305.515L115.455 314.14L86.82 354.85H86.59L57.15 314.14L60.025 306.205V356H43.925ZM150.098 313.795C150.098 307.968 151.21 302.448 153.433 297.235C155.656 292.022 158.723 287.422 162.633 283.435C166.62 279.372 171.22 276.19 176.433 273.89C181.646 271.59 187.243 270.44 193.223 270.44C199.126 270.44 204.685 271.59 209.898 273.89C215.111 276.19 219.711 279.372 223.698 283.435C227.761 287.422 230.905 292.022 233.128 297.235C235.428 302.448 236.578 307.968 236.578 313.795C236.578 319.775 235.428 325.372 233.128 330.585C230.905 335.798 227.761 340.398 223.698 344.385C219.711 348.295 215.111 351.362 209.898 353.585C204.685 355.808 199.126 356.92 193.223 356.92C187.243 356.92 181.646 355.808 176.433 353.585C171.22 351.362 166.62 348.295 162.633 344.385C158.723 340.398 155.656 335.798 153.433 330.585C151.21 325.372 150.098 319.775 150.098 313.795ZM167.348 313.795C167.348 317.552 168 321.078 169.303 324.375C170.683 327.595 172.561 330.47 174.938 333C177.391 335.453 180.19 337.37 183.333 338.75C186.553 340.13 190.041 340.82 193.798 340.82C197.401 340.82 200.736 340.13 203.803 338.75C206.946 337.37 209.668 335.453 211.968 333C214.268 330.47 216.07 327.595 217.373 324.375C218.676 321.078 219.328 317.552 219.328 313.795C219.328 309.962 218.638 306.397 217.258 303.1C215.955 299.803 214.115 296.928 211.738 294.475C209.438 291.945 206.716 289.99 203.573 288.61C200.43 287.23 197.018 286.54 193.338 286.54C189.658 286.54 186.246 287.23 183.103 288.61C179.96 289.99 177.2 291.945 174.823 294.475C172.446 296.928 170.606 299.803 169.303 303.1C168 306.397 167.348 309.962 167.348 313.795ZM281.148 271.36C286.438 271.36 291.153 272.05 295.293 273.43C299.433 274.733 302.883 276.65 305.643 279.18C308.479 281.633 310.626 284.623 312.083 288.15C313.539 291.6 314.268 295.51 314.268 299.88C314.268 303.33 313.731 306.78 312.658 310.23C311.661 313.68 309.974 316.823 307.598 319.66C305.298 322.497 302.231 324.797 298.398 326.56C294.564 328.247 289.811 329.09 284.138 329.09H272.178V356H255.503V271.36H281.148ZM284.023 312.99C286.553 312.99 288.661 312.568 290.348 311.725C292.034 310.882 293.338 309.808 294.258 308.505C295.254 307.202 295.944 305.86 296.328 304.48C296.788 303.023 297.018 301.682 297.018 300.455C297.018 299.535 296.864 298.385 296.558 297.005C296.328 295.548 295.791 294.092 294.948 292.635C294.104 291.178 292.801 289.952 291.038 288.955C289.351 287.958 287.051 287.46 284.138 287.46H272.178V312.99H284.023ZM299.663 323.34L320.593 356H301.158L279.768 323.8L299.663 323.34ZM336.64 271.36H394.37V287.46H353.315V305.515H389.655V321.615H353.315V339.9H395.98V356H336.64V271.36ZM491.317 359.45L427.147 301.49L432.092 304.25L432.437 356H415.532V268.025H416.222L479.012 325.755L475.332 324.145L474.987 271.36H491.777V359.45H491.317ZM510.124 271.36H567.164V287.46H546.579V356H529.904V287.46H510.124V271.36Z" fill="url(#paint0_linear_2001_2)"/>
<defs>
<linearGradient id="paint0_linear_2001_2" x1="33" y1="313.5" x2="574" y2="313.5" gradientUnits="userSpaceOnUse">
<stop stop-color="#F1ECEC"/>
<stop offset="0.44" stop-color="#F8F991"/>
<stop offset="0.825" stop-color="#F18F01"/>
</linearGradient>
</defs>
</svg>
