<svg width="316" height="316" viewBox="0 0 316 316" fill="none" xmlns="http://www.w3.org/2000/svg">
<path d="M0.5 35.5C0.5 26.2174 4.18749 17.315 10.7513 10.7513C17.315 4.18749 26.2174 0.5 35.5 0.5H238.255C247.537 0.501982 256.438 4.19077 263 10.755L310.372 58.1275C313.655 61.4086 315.499 65.8591 315.5 70.5V280.5C315.5 289.783 311.812 298.685 305.249 305.249C298.685 311.812 289.783 315.5 280.5 315.5H35.5C26.2174 315.5 17.315 311.812 10.7513 305.249C4.18749 298.685 0.5 289.783 0.5 280.5V35.5ZM105.5 280.5H210.5V175.5H105.5V280.5ZM245.5 280.5H280.5V77.745L245.5 42.745V70.5C245.5 79.7826 241.813 88.685 235.249 95.2487C228.685 101.813 219.783 105.5 210.5 105.5H105.5C96.2174 105.5 87.315 101.813 80.7513 95.2487C74.1875 88.685 70.5 79.7826 70.5 70.5V35.5H35.5V280.5H70.5V175.5C70.5 166.217 74.1875 157.315 80.7513 150.751C87.315 144.187 96.2174 140.5 105.5 140.5H210.5C219.783 140.5 228.685 144.187 235.249 150.751C241.813 157.315 245.5 166.217 245.5 175.5V280.5ZM105.5 35.5V70.5H210.5V35.5H105.5Z" fill="#3563E9"/>
</svg>
