<svg width="301" height="301" viewBox="0 0 301 301" fill="none" xmlns="http://www.w3.org/2000/svg">
<path d="M150.5 150.5C185.133 150.5 213.208 122.424 213.208 87.7916C213.208 53.1587 185.133 25.0833 150.5 25.0833C115.867 25.0833 87.7916 53.1587 87.7916 87.7916C87.7916 122.424 115.867 150.5 150.5 150.5Z" stroke="#3563E9" stroke-width="27" stroke-linecap="round" stroke-linejoin="round"/>
<path d="M240.925 197.406L196.527 241.804C194.772 243.56 193.141 246.82 192.765 249.203L190.382 266.134C189.504 272.279 193.768 276.544 199.914 275.666L216.845 273.283C219.228 272.907 222.614 271.276 224.245 269.521L268.642 225.123C276.292 217.473 279.93 208.568 268.642 197.28C257.48 186.118 248.576 189.756 240.925 197.406Z" stroke="#3563E9" stroke-width="13" stroke-miterlimit="10" stroke-linecap="round" stroke-linejoin="round"/>
<path d="M234.529 203.802C238.292 217.347 248.826 227.882 262.371 231.644" stroke="#3563E9" stroke-width="13" stroke-miterlimit="10" stroke-linecap="round" stroke-linejoin="round"/>
<path d="M42.7667 275.917C42.7667 227.38 91.0525 188.125 150.5 188.125C163.543 188.125 176.085 190.006 187.748 193.518" stroke="#3563E9" stroke-width="31" stroke-linecap="round" stroke-linejoin="round"/>
</svg>
